PathFileType	4	(X/Y/Z)	C:\Users\Willi\Documents\UniDataLokal\DATA_Hans_PhD\TD05\3DGAIT_C_W31\marker_experimental.trc
DataRate	CameraRate	NumFrames	NumMarkers	Units	OrigDataRate	OrigDataStartFrame	OrigNumFrames
100.000000	100.000000	4	85	mm	100.000000	100	200
Frame#	Time	RBAK			C7			CLAV			T10			STRN			RASI			RPSI			LPSI			LASI			LPELV			RPELV			RTHI1			RTHI2			RTHI3			RTHI			RKNE			RPAT			RLKNEL			RLKNEM			RLPAT			RTIB1			RTIB2			RTIB3			RTIB			RANK			RHEEL			RTOE			RM5			LTHI1			LTHI2			LTHI3			LTHI			LKNE			LPAT			LLKNE			LLKNEM			LLPAT			LTIB1			LTIB2			LTIB3			LTIB			LANK			LHEEL			LTOE			LM5			*45			*46			*47			*48			*49			*50			*51			*52			*53			*54			*55			*56			*57			*58			*59			*60			*61			*62			*63			*64			*65			*66			*67			*68			*69			*70			*71			*72			*73			*74			*75			*76			*77			*78			*79			*80			*81			*82			*83			*84			
		X1	Y1	Z1	X2	Y2	Z2	X3	Y3	Z3	X4	Y4	Z4	X5	Y5	Z5	X6	Y6	Z6	X7	Y7	Z7	X8	Y8	Z8	X9	Y9	Z9	X10	Y10	Z10	X11	Y11	Z11	X12	Y12	Z12	X13	Y13	Z13	X14	Y14	Z14	X15	Y15	Z15	X16	Y16	Z16	X17	Y17	Z17	X18	Y18	Z18	X19	Y19	Z19	X20	Y20	Z20	X21	Y21	Z21	X22	Y22	Z22	X23	Y23	Z23	X24	Y24	Z24	X25	Y25	Z25	X26	Y26	Z26	X27	Y27	Z27	X28	Y28	Z28	X29	Y29	Z29	X30	Y30	Z30	X31	Y31	Z31	X32	Y32	Z32	X33	Y33	Z33	X34	Y34	Z34	X35	Y35	Z35	X36	Y36	Z36	X37	Y37	Z37	X38	Y38	Z38	X39	Y39	Z39	X40	Y40	Z40	X41	Y41	Z41	X42	Y42	Z42	X43	Y43	Z43	X44	Y44	Z44	X45	Y45	Z45	X46	Y46	Z46	X47	Y47	Z47	X48	Y48	Z48	X49	Y49	Z49	X50	Y50	Z50	X51	Y51	Z51	X52	Y52	Z52	X53	Y53	Z53	X54	Y54	Z54	X55	Y55	Z55	X56	Y56	Z56	X57	Y57	Z57	X58	Y58	Z58	X59	Y59	Z59	X60	Y60	Z60	X61	Y61	Z61	X62	Y62	Z62	X63	Y63	Z63	X64	Y64	Z64	X65	Y65	Z65	X66	Y66	Z66	X67	Y67	Z67	X68	Y68	Z68	X69	Y69	Z69	X70	Y70	Z70	X71	Y71	Z71	X72	Y72	Z72	X73	Y73	Z73	X74	Y74	Z74	X75	Y75	Z75	X76	Y76	Z76	X77	Y77	Z77	X78	Y78	Z78	X79	Y79	Z79	X80	Y80	Z80	X81	Y81	Z81	X82	Y82	Z82	X83	Y83	Z83	X84	Y84	Z84	X85	Y85	Z85	

101	1	80.93002319335932	1289.720336914062	-136.4172821044922	126.1053848266601	1379.79736328125	-292.8061218261719	225.8763427734375	1284.5068359375	-295.4990539550781	70.39707946777342	1057.9951171875	-300.5012817382812	279.2703857421875	1054.060424804688	-292.5816955566406	251.3206024169922	890.545654296875	-171.3798370361328	71.59208679199217	911.3842163085938	-238.8539276123047	77.6540985107422	915.3665771484375	-350.5432739257812	267.6240539550781	907.57958984375	-410.9786682128906	186.1172332763672	945.2322998046875	-458.7699584960937	161.316177368164	937.0934448242188	-131.6786041259765	291.1460571289062	611.6136474609375	-97.22188568115229	354.4494018554687	587.0655517578125	-123.0425643920898	335.4667053222656	520.3276977539062	-112.207534790039	276.2390441894531	515.2861328125	-81.30199432373041	306.7597351074219	450.5504455566406	-121.7088623046874	391.5376281738282	442.2140502929688	-155.4242706298827	286.1148071289062	416.9124450683594	-130.1464385986328	326.1932678222657	409.9277038574219	-239.5323791503906	335.6228027343751	374.048095703125	-158.1239471435546	252.5954437255859	275.6285400390625	-163.2639160156249	185.3160095214844	260.8492126464844	-153.6561431884765	200.0310974121094	203.7475891113281	-185.748779296875	102.5856628417969	231.2647247314453	-163.5276794433593	102.1724929809571	159.6268615722656	-204.0857849121093	75.98511505126956	139.3396606445312	-269.6343383789062	179.5120544433594	51.50103759765626	-147.6256713867187	128.4140167236328	59.68762969970704	-129.0753173828125	240.3534088134766	613.6961059570312	-446.5205688476562	262.1551208496094	565.9616088867188	-409.8502197265624	218.5471801757813	519.9154052734375	-432.9598388671874	179.0276489257813	528.27294921875	-477.4349975585937	172.6757202148438	458.7831115722656	-430.6828308105468	231.6550903320313	438.2741394042969	-367.4678955078124	161.9093017578126	410.7063293457031	-426.3548583984374	150.8974609375	413.6350402832031	-307.9454956054688	206.598861694336	386.2997131347656	-379.9497985839843	196.6255035400391	294.5585021972656	-388.9848632812499	152.6232299804688	248.9255065917969	-420.15087890625	187.7974853515626	195.769287109375	-380.8626708984374	93.60237121582037	165.4947357177734	-420.8042602539062	136.0551910400391	69.06218719482423	-366.9216613769531	115.8905868530274	33.00802612304688	-308.0032043457031	279.3250732421876	33.11315917968751	-401.7229919433593	232.724334716797	15.00263500213624	-428.6494140624999	nan	nan	nan	nan	nan	nan	nan	nan	nan	nan	nan	nan	nan	nan	nan	nan	nan	nan	nan	nan	nan	nan	nan	nan	nan	nan	nan	nan	nan	nan	nan	nan	nan	nan	nan	nan	nan	nan	nan	nan	nan	nan	nan	nan	nan	nan	nan	nan	nan	nan	nan	nan	nan	nan	nan	nan	nan	nan	nan	nan	nan	nan	nan	nan	nan	nan	nan	nan	nan	nan	nan	nan	nan	nan	nan	nan	nan	nan	nan	nan	nan	nan	nan	nan	nan	nan	nan	nan	nan	nan	nan	nan	nan	nan	nan	nan	nan	nan	nan	nan	nan	nan	nan	nan	nan	nan	nan	nan	nan	nan	nan	nan	nan	nan	nan	nan	nan	nan	nan	nan	
102	1.01	88.85292816162104	1289.76904296875	-137.3636474609375	134.7865905761718	1379.943603515625	-293.2510070800781	234.3492584228515	1284.548950195312	-295.7994079589843	78.53322601318358	1058.305419921875	-301.556640625	287.1942138671875	1054.0546875	-293.2995300292968	259.3171081542969	891.2483520507812	-172.3087615966796	79.48043060302733	911.770263671875	-239.3263397216797	85.37418365478517	915.4864501953125	-350.9457092285156	275.1334533691406	907.3557739257812	-411.9251098632812	193.6945190429688	944.9019775390625	-459.5134277343749	169.3639221191406	937.696044921875	-132.3179779052734	303.0644836425781	613.9058837890625	-98.10912322998041	366.1618041992187	589.9978637695312	-125.0427246093749	348.1760253906249	523.0934448242188	-113.4643325805663	289.5986938476562	517.47509765625	-81.42698669433588	319.5069580078125	452.4880676269531	-122.8886642456054	404.6240234375001	446.1305847167969	-156.4497680664062	299.4501647949219	417.9062805175781	-131.4943542480468	339.9031677246094	411.8801574707031	-240.1232299804687	350.6524658203126	376.7006530761719	-158.5857696533203	272.0427856445313	274.9205322265625	-163.4632568359374	205.4314422607422	257.1024169921875	-154.4965057373047	223.2295684814453	200.4197845458984	-185.7656860351562	124.3191528320313	223.6011505126953	-165.2423248291015	127.7423095703125	151.2372131347656	-204.5795745849609	103.2611465454102	128.4753723144531	-270.0398559570312	211.0626678466797	49.07154083251955	-146.1179046630859	159.4167633056641	53.99238967895509	-128.0359954833984	247.0824279785157	613.3148193359375	-446.5634765624999	268.9015197753906	565.63525390625	-409.9010620117187	225.0346984863282	519.6832275390625	-432.7160034179687	185.4642181396485	528.033447265625	-477.1242980957031	178.9640655517579	458.6689758300781	-430.1972351074218	237.8463287353516	437.90673828125	-367.1412353515624	167.9085845947266	410.6075439453125	-425.7641601562499	156.9245758056641	413.8447570800781	-307.3908691406249	212.168930053711	385.8255920410156	-379.2547302246093	200.9949951171876	293.9152221679688	-388.0873413085937	156.4136047363282	248.9460144042969	-419.4170837402343	190.595443725586	195.2476959228516	-379.9421081542968	96.22415161132818	166.4151000976562	-420.4213256835938	136.8706970214844	69.37973022460939	-366.4142761230469	116.1465454101563	33.08442687988282	-307.5715942382812	279.5921325683594	33.0717239379883	-401.5031127929687	232.7194824218751	15.21665954589845	-428.4879455566406	nan	nan	nan	nan	nan	nan	nan	nan	nan	nan	nan	nan	nan	nan	nan	nan	nan	nan	nan	nan	nan	nan	nan	nan	nan	nan	nan	nan	nan	nan	nan	nan	nan	nan	nan	nan	nan	nan	nan	nan	nan	nan	nan	nan	nan	nan	nan	nan	nan	nan	nan	nan	nan	nan	nan	nan	nan	nan	nan	nan	nan	nan	nan	nan	nan	nan	nan	nan	nan	nan	nan	nan	nan	nan	nan	nan	nan	nan	nan	nan	nan	nan	nan	nan	nan	nan	nan	nan	nan	nan	nan	nan	nan	nan	nan	nan	nan	nan	nan	nan	nan	nan	nan	nan	nan	nan	nan	nan	nan	nan	nan	nan	nan	nan	nan	nan	nan	nan	nan	nan	
103	1.02	96.78406524658197	1289.749755859375	-138.261474609375	143.4790802001953	1379.997924804688	-293.6312255859375	242.833984375	1284.532104492188	-296.0296325683593	86.71468353271483	1058.519653320312	-302.5154113769531	295.1773376464844	1053.979248046875	-293.9205322265624	267.3012084960938	891.7954711914062	-173.1089630126953	87.38607025146483	912.0728149414062	-239.749282836914	93.13352203369142	915.5427856445312	-351.2969055175781	282.68896484375	907.0376586914062	-412.7552490234374	201.3357696533203	944.4857788085938	-460.1611633300781	177.4159698486328	938.1356811523438	-132.8859252929687	314.5192871093749	615.9033813476562	-99.08612823486322	377.3720703124999	592.5248413085938	-127.0969238281249	360.2775878906249	525.5020751953125	-114.7954330444335	302.3239440917968	519.4168701171875	-81.67967224121088	331.6159973144531	454.0890197753906	-124.1001892089843	417.0527343750001	449.7250671386719	-157.5173187255859	312.2542419433594	418.5333557128906	-132.7947540283203	353.1798400878907	413.4297790527344	-240.720230102539	365.1716003417969	379.14794921875	-158.9801177978515	291.4082031250001	274.0474853515625	-163.4366302490234	225.6876983642578	253.0483245849609	-155.1123046875	246.6639709472657	196.9748687744141	-185.4611511230468	146.4436950683594	215.5520629882812	-166.7775268554687	153.9250183105469	142.6484527587891	-204.7772827148437	131.4982299804688	117.4383544921875	-270.1837463378906	242.6230621337891	46.94412994384767	-143.9237213134765	190.6245269775391	48.67656326293947	-126.4810333251953	253.8483581542969	612.858154296875	-446.5296630859374	275.6890258789062	565.230712890625	-409.8674621582031	231.5840911865235	519.3659057617188	-432.4039306640624	191.9674530029297	527.7030029296875	-476.7587890624999	185.3226013183594	458.4671325683594	-429.6533203124999	244.0989685058594	437.4546508789062	-366.7606506347656	173.9775695800782	410.4268493652344	-425.1235046386718	163.0170440673828	413.9577941894531	-306.7926330566406	217.7968292236328	385.2779846191406	-378.5097656249999	205.4270629882813	293.2450866699219	-387.1415405273437	160.2519683837891	248.9164581298828	-418.6582641601562	193.4242095947266	194.6807403564453	-379.0008239746093	98.90204620361334	167.3174743652344	-420.0482788085938	137.7061614990235	69.69101715087892	-365.9207458496094	116.4079208374024	33.16924667358399	-307.1767578125	279.8305664062501	33.0233840942383	-401.2715454101562	232.711883544922	15.43091201782228	-428.3054809570312	nan	nan	nan	nan	nan	nan	nan	nan	nan	nan	nan	nan	nan	nan	nan	nan	nan	nan	nan	nan	nan	nan	nan	nan	nan	nan	nan	nan	nan	nan	nan	nan	nan	nan	nan	nan	nan	nan	nan	nan	nan	nan	nan	nan	nan	nan	nan	nan	nan	nan	nan	nan	nan	nan	nan	nan	nan	nan	nan	nan	nan	nan	nan	nan	nan	nan	nan	nan	nan	nan	nan	nan	nan	nan	nan	nan	nan	nan	nan	nan	nan	nan	nan	nan	nan	nan	nan	nan	nan	nan	nan	nan	nan	nan	nan	nan	nan	nan	nan	nan	nan	nan	nan	nan	nan	nan	nan	nan	nan	nan	nan	nan	nan	nan	nan	nan	nan	nan	nan	nan	
104	1.03	104.7324142456054	1289.65283203125	-139.1063842773437	152.1868896484375	1379.954345703125	-293.9459228515625	251.3388214111328	1284.4462890625	-296.1878967285156	94.94831085205077	1058.632446289062	-303.3779296875	303.2299194335938	1053.821899414062	-294.4435729980468	275.2843933105469	892.181640625	-173.7803344726562	95.31781768798827	912.2872314453125	-240.1265869140625	100.9393539428711	915.5299072265625	-351.6015014648438	290.2996520996094	906.6199951171875	-413.4695739746093	209.0410614013672	943.9896850585938	-460.7157287597656	185.4861297607422	938.4228515625	-133.3821868896484	325.4440002441406	617.5535888671875	-100.1343231201171	388.0298156738281	594.6014404296875	-129.1559600830077	371.7172241210937	527.5006713867188	-116.1791839599609	314.3388671874999	521.0474853515625	-82.07458496093744	343.0784912109375	455.3089599609375	-125.3352432250976	428.8099975585938	452.9518737792969	-158.6153717041015	324.5405578613281	418.7663269042969	-134.0401458740234	366.0175170898438	414.5809326171875	-241.3332214355468	379.1734924316407	381.3710327148438	-159.3186645507812	310.6777648925782	273.0641174316406	-163.2005920410156	246.0961303710938	248.7712554931641	-155.4882507324218	270.3107910156251	193.5245361328125	-184.8522796630859	168.9835662841797	207.2318420410156	-168.0583190917968	180.70263671875	134.0319519042969	-204.6478424072265	160.6041870117188	106.4623336791992	-270.0191345214843	274.1790161132812	45.14668655395509	-141.1518859863281	222.0048370361328	43.77971267700197	-124.4518585205078	260.6410522460938	612.3237915039062	-446.4191894531249	282.5050354003906	564.7393188476562	-409.7538452148437	238.1768646240235	518.9584350585938	-432.0245971679687	198.5193481445313	527.2787475585938	-476.3385925292968	191.7319946289063	458.1748352050781	-429.0520019531249	250.3999328613282	436.9146423339844	-366.3298339843749	180.0916748046876	410.1607666015625	-424.4334106445312	169.1657409667969	413.9727478027344	-306.1527709960937	223.4644622802735	384.6527099609375	-377.7185668945312	209.9052886962891	292.5492248535156	-386.1525573730468	164.1224975585938	248.8355560302734	-417.8773498535156	196.2817687988282	194.0738067626953	-378.0466308593749	101.6245040893555	168.2000122070312	-419.6761474609375	138.5630798339844	70.00010681152345	-365.4382019042969	116.6804122924805	33.26565551757813	-306.8192138671875	280.0433654785157	32.96335983276369	-401.0309753417968	232.7052764892579	15.64193153381349	-428.1017456054687	nan	nan	nan	nan	nan	nan	nan	nan	nan	nan	nan	nan	nan	nan	nan	nan	nan	nan	nan	nan	nan	nan	nan	nan	nan	nan	nan	nan	nan	nan	nan	nan	nan	nan	nan	nan	nan	nan	nan	nan	nan	nan	nan	nan	nan	nan	nan	nan	nan	nan	nan	nan	nan	nan	nan	nan	nan	nan	nan	nan	nan	nan	nan	nan	nan	nan	nan	nan	nan	nan	nan	nan	nan	nan	nan	nan	nan	nan	nan	nan	nan	nan	nan	nan	nan	nan	nan	nan	nan	nan	nan	nan	nan	nan	nan	nan	nan	nan	nan	nan	nan	nan	nan	nan	nan	nan	nan	nan	nan	nan	nan	nan	nan	nan	nan	nan	nan	nan	nan	nan	
